# xmcd
#
# Track frame offsets:
#	150
#	16992
#	36584
#	59748
#	79625
#	100017
#	120981
#	139762
#	161204
#	181306
#	201020
#	217231
#	237593
#	256178
#	275855
#	293371
#	311623
#	329909
#
# Disc length: 4732 seconds
#
# Revision: 1
# Processed by: cddbd v1.5.1PL2 Copyright (c) Steve Scherf et al.
# Submitted via: audiograbber 1.83.01
#
DISCID=16127a12
DTITLE=Love Songs - Romeo and Julia
DYEAR=1900
DGENRE=
TTITLE0=CELINE DION - The power of love
TTITLE1=JOE COCKER - Shelter me
TTITLE2=NO DOUBT - Don't speak
TTITLE3=S. BRIGHTMAN and A. BOCELLI - Time to say Good-bye
TTITLE4=SCORPIONS - You and I
TTITLE5=R. KELLY - I believe I can fly
TTITLE6=EN VOGUE - Don't let go
TTITLE7=EVERYTHING BUT THE GIRL - Walking to you
TTITLE8=EAST 17 - If you ever
TTITLE9=RANDY CRAWFORD - ONE DAY I'll fly away
TTITLE10=NO MERCY - When I die
TTITLE11=SIMPLY RED - Angel
TTITLE12=CULTURED PEARLS - Sugar, Sugar Honey
TTITLE13=ROD STEWART - You're in my heart
TTITLE14=MARK OWEN - Child
TTITLE15=TAKE THAT - Back for good
TTITLE16=DIANA KING - I say a little prayer
TTITLE17=TINA TURNER - In your wildest dreams
EXTD=
EXTT0=
EXTT1=
EXTT2=
EXTT3=
EXTT4=
EXTT5=
EXTT6=
EXTT7=
EXTT8=
EXTT9=
EXTT10=
EXTT11=
EXTT12=
EXTT13=
EXTT14=
EXTT15=
EXTT16=
EXTT17=
PLAYORDER=
